:SAMPLES-PER-SECOND 30
:FULLY-SPECIFIED
:DEGREES
329
root  -42.4059 34.4831 7.94493 -140.98 80.5313 -156.886
RightUpLeg  -18.3782 -19.3788 11.1189
RightLeg  9.05213 -5.32556 -0.497927
RightFoot  0.494002 -0.0088188 0.0722609
RightToes  -19.137 -0.0799269 -0.172596
Spine  -0.296231 -0.769339 1.13191
Spine1  -0.617843 -1.69924 2.90026
HEad  -55.6073 1.7179 0.497856
LeftShoulder1  -1.94126e-019 -3.10601e-018 -2.51263e-017
LeftArm  -12.441 36.4085 -74.8238
LeftForeArm  44.5579 -65.1655 -19.8944
LeftHand  -0.669807 -3.70679 8.80378
RightShoulder  -4.96962e-017 0 -2.36833e-017
RightArm  -31.2193 -28.1939 76.7256
RightForeArm  57.0483 12.4497 1.44068
RightHand  -0.29671 -1.43487 -8.5801
LeftUpLeg  -19.0472 13.2861 11.6441
LeftLeg  5.54139 5.51136 0.177883
LeftFoot  13.552 -0.14221 1.35835
LeftToes  -43.262 2.40056e-006 -7.68412e-008
330
root  -42.4489 34.5165 7.9352 -142.25 80.3825 -157.872
RightUpLeg  -18.1366 -19.8192 11.0575
RightLeg  8.92569 -5.37287 -0.490394
RightFoot  0.763103 -0.00819803 0.0633905
RightToes  -19.4949 -0.0796469 -0.171404
Spine  -0.132533 -0.453137 1.09657
Spine1  -0.29447 -0.915993 2.77828
HEad  -54.3352 2.19622 -0.440409
LeftShoulder1  -1.94126e-019 -3.10601e-018 -2.51263e-017
LeftArm  -11.5042 34.1851 -72.8422
LeftForeArm  44.6247 -62.9543 -17.7127
LeftHand  -0.61437 -3.4594 8.30914
RightShoulder  -4.96962e-017 0 -2.36833e-017
RightArm  -28.5035 -24.0177 76.9691
RightForeArm  57.0366 12.7681 1.40616
RightHand  -0.311148 -1.86184 -10.0469
LeftUpLeg  -18.4609 11.4731 11.867
LeftLeg  4.74135 6.83846 0.125509
LeftFoot  14.4257 -0.207119 1.79799
LeftToes  -41.1402 2.40056e-006 -7.68412e-008
331
root  -42.4968 34.5572 7.87789 -143.912 80.3007 -159.244
RightUpLeg  -17.5322 -19.2644 10.5439
RightLeg  8.31693 -6.03059 -0.485813
RightFoot  1.03629 -0.00700345 0.0486602
RightToes  -19.1261 -0.0797589 -0.170923
Spine  -0.0256046 -0.118798 1.02592
Spine1  -0.0826893 -0.128851 2.57614
HEad  -53.0364 2.25517 -1.10027
LeftShoulder1  -1.94126e-019 -3.10601e-018 -2.51263e-017
LeftArm  -9.89082 31.8134 -70.8915
LeftForeArm  46.1645 -60.8024 -15.7888
LeftHand  -0.572231 -3.46815 7.75056
RightShoulder  -4.96962e-017 0 -2.36833e-017
RightArm  -25.7265 -19.4364 77.0013
RightForeArm  57.4936 12.7728 1.40239
RightHand  -0.315348 -2.05126 -10.7431
LeftUpLeg  -18.8575 8.77374 12.0968
LeftLeg  6.05461 9.35095 0.384905
LeftFoot  14.1415 -0.280041 2.41895
LeftToes  -39.0301 2.40056e-006 -7.68412e-008
332
root  -42.5218 34.5986 7.77667 -144.293 80.404 -159.322
RightUpLeg  -16.8797 -19 10.1731
RightLeg  7.62179 -6.33037 -0.4328
RightFoot  1.50346 -0.00389396 0.00861502
RightToes  -19.2195 -0.0803345 -0.17147
Spine  0.0394979 0.243323 0.997351
Spine1  0.0537819 0.670755 2.49382
HEad  -52.1439 2.17839 -1.65097
LeftShoulder1  -1.94126e-019 -3.10601e-018 -2.51263e-017
LeftArm  -7.79192 29.7948 -69.2437
LeftForeArm  48.9133 -59.1825 -14.3882
LeftHand  -0.667676 -3.72398 8.76119
RightShoulder  -4.96962e-017 0 -2.36833e-017
RightArm  -22.3539 -14.7505 76.7844
RightForeArm  57.4359 13.001 1.37591
RightHand  -0.295518 -2.1971 -10.4884
LeftUpLeg  -19.8651 7.26744 12.1953
LeftLeg  8.84594 10.7023 0.96029
LeftFoot  12.9669 -0.274378 2.57558
LeftToes  -37.6919 2.40056e-006 -7.68412e-008
333
root  -42.515 34.625 7.63622 -143.873 80.6295 -158.507
RightUpLeg  -16.0383 -19.0262 9.83292
RightLeg  6.79768 -6.1923 -0.334176
RightFoot  1.98974 -0.000722441 -0.0305584
RightToes  -19.571 -0.0814453 -0.173364
Spine  0.0870429 0.590988 1.01307
Spine1  0.165287 1.39847 2.5343
HEad  -51.6446 2.09412 -2.13187
LeftShoulder1  -1.94126e-019 -3.10601e-018 -2.51263e-017
LeftArm  -6.30423 28.2833 -68.2251
LeftForeArm  49.6322 -58.4367 -13.8488
LeftHand  -0.730975 -3.74637 9.54216
RightShoulder  -4.96962e-017 0 -2.36833e-017
RightArm  -18.7546 -10.2108 76.4021
RightForeArm  56.721 13.6026 1.30431
RightHand  -0.298706 -2.02753 -10.0891
LeftUpLeg  -20.8679 7.4364 12.0291
LeftLeg  11.8256 10.392 1.47699
LeftFoot  11.5705 -0.214941 2.28279
LeftToes  -34.0954 2.40056e-006 -7.68412e-008
334
root  -42.4683 34.6334 7.47724 -142.214 80.739 -156.324
RightUpLeg  -14.9506 -19.3373 9.69831
RightLeg  5.83193 -5.80203 -0.215378
RightFoot  2.56176 0.00268559 -0.0716439
RightToes  -20.3045 -0.0831629 -0.179266
Spine  0.141578 0.92349 1.14538
Spine1  0.30486 2.05291 2.83966
HEad  -51.2864 1.83673 -2.56651
LeftShoulder1  -1.94126e-019 -3.10601e-018 -2.51263e-017
LeftArm  -5.88078 27.1677 -68.1239
LeftForeArm  47.9309 -58.4935 -14.0429
LeftHand  -0.721866 -3.6321 9.53914
RightShoulder  -4.96962e-017 0 -2.36833e-017
RightArm  -14.5733 -6.05094 75.7644
RightForeArm  54.7285 14.7471 1.18217
RightHand  -0.281213 -2.19643 -9.95967
LeftUpLeg  -21.7757 8.04472 12.0504
LeftLeg  14.9173 9.79862 1.93417
LeftFoot  10.4729 -0.168462 1.99952
LeftToes  -33.5206 2.40056e-006 -7.68412e-008
335
root  -42.4068 34.6321 7.28252 -140.55 80.763 -154.122
RightUpLeg  -13.9521 -19.6733 9.49589
RightLeg  5.13377 -5.38553 -0.134398
RightFoot  3.03649 0.0051892 -0.0986272
RightToes  -21.0798 -0.0875596 -0.185447
Spine  0.14705 1.21819 1.33971
Spine1  0.34749 2.60941 3.2719
HEad  -50.7862 1.63799 -3.00181
LeftShoulder1  -1.94126e-019 -3.10601e-018 -2.51263e-017
LeftArm  -6.6088 26.4179 -69.1016
LeftForeArm  45.5519 -58.6317 -14.3556
LeftHand  -0.692954 -3.63227 9.16853
RightShoulder  -4.96962e-017 0 -2.36833e-017
RightArm  -11.3538 -2.54838 74.9074
RightForeArm  53.3038 17.0033 1.28241
RightHand  -0.283194 -2.23919 -10.164
LeftUpLeg  -22.6879 8.87909 11.9384
LeftLeg  17.9168 9.30474 2.34628
LeftFoot  9.55847 -0.135263 1.77927
LeftToes  -32.0738 2.40056e-006 -7.68412e-008
336
root  -42.3096 34.6364 7.0552 -140.47 80.6579 -153.502
RightUpLeg  -13.1644 -20.2632 9.13663
RightLeg  5.00947 -5.17755 -0.117994
RightFoot  3.29731 0.00672512 -0.110893
RightToes  -21.9589 -0.0926455 -0.192382
Spine  0.172366 1.42538 1.52197
Spine1  0.419675 3.01618 3.645
HEad  -50.2675 1.58121 -3.27733
LeftShoulder1  -1.94126e-019 -3.10601e-018 -2.51263e-017
LeftArm  -7.93887 25.8466 -70.8338
LeftForeArm  43.2353 -58.4838 -14.4792
LeftHand  -0.655 -3.15081 9.13965
RightShoulder  -4.96962e-017 0 -2.36833e-017
RightArm  -9.66206 0.415347 74.1059
RightForeArm  52.5294 19.8036 1.67496
RightHand  -0.310919 -2.01605 -10.4808
LeftUpLeg  -23.3822 10.1127 11.3885
LeftLeg  20.3227 9.42135 2.79814
LeftFoot  8.99233 -0.123003 1.72568
LeftToes  -30.8185 2.40056e-006 -7.68412e-008
337
root  -42.2242 34.6643 6.79331 -142.586 80.5537 -155.264
RightUpLeg  -12.565 -20.0892 8.30543
RightLeg  5.01817 -5.74903 -0.131891
RightFoot  3.50383 0.0108629 -0.159745
RightToes  -22.5926 -0.0955849 -0.197334
Spine  0.161338 1.53863 1.58487
Spine1  0.407837 3.24657 3.77689
HEad  -49.7874 1.60602 -3.27029
LeftShoulder1  -1.94126e-019 -3.10601e-018 -2.51263e-017
LeftArm  -9.14516 25.4167 -72.8545
LeftForeArm  40.9465 -57.7385 -14.214
LeftHand  -0.640957 -2.73905 9.37454
RightShoulder  -4.96962e-017 0 -2.36833e-017
RightArm  -9.34855 2.70261 73.6062
RightForeArm  52.3094 22.8205 2.25974
RightHand  -0.314576 -2.03705 -10.6721
LeftUpLeg  -24.0412 12.1311 10.0037
LeftLeg  21.8976 10.3716 3.38745
LeftFoot  8.92639 -0.137347 1.89184
LeftToes  -29.576 2.40056e-006 -7.68412e-008
338
root  -42.1374 34.7049 6.46818 -147.715 80.3855 -160.121
RightUpLeg  -12.1053 -20.0732 6.90188
RightLeg  5.30681 -6.24569 -0.174662
RightFoot  3.4502 0.0130411 -0.180284
RightToes  -22.9563 -0.0985448 -0.200157
Spine  0.1575 1.52716 1.49214
Spine1  0.393067 3.216 3.60835
HEad  -49.3182 1.63483 -3.04588
LeftShoulder1  -1.94126e-019 -3.10601e-018 -2.51263e-017
LeftArm  -9.85845 25.0517 -74.8514
LeftForeArm  38.5049 -56.4447 -13.6441
LeftHand  -0.621736 -2.29265 9.59774
RightShoulder  -4.96962e-017 0 -2.36833e-017
RightArm  -9.60925 4.23676 73.4004
RightForeArm  51.3947 26.0801 2.94738
RightHand  -0.316531 -2.03403 -10.7311
LeftUpLeg  -24.4331 14.1003 7.82286
LeftLeg  22.5779 12.4594 4.22042
LeftFoot  8.99352 -0.166066 2.27291
LeftToes  -27.5214 2.40056e-006 -7.68412e-008
